<?xml version="1.0" standalone="no"?>
<!DOCTYPE svg PUBLIC "-//W3C//DTD SVG 20010904//EN"
 "http://www.w3.org/TR/2001/REC-SVG-20010904/DTD/svg10.dtd">
<svg version="1.0" xmlns="http://www.w3.org/2000/svg"
 width="498.000000pt" height="516.000000pt" viewBox="0 0 498.000000 516.000000"
 preserveAspectRatio="xMidYMid meet">

<g transform="translate(0.000000,516.000000) scale(0.100000,-0.100000)"
fill="#000000" stroke="none">
<path d="M658 4922 c-148 -229 -155 -539 -18 -815 62 -123 136 -224 255 -343
175 -175 322 -278 790 -549 400 -233 574 -355 754 -529 257 -250 406 -514 478
-847 28 -132 26 -475 -5 -626 -69 -340 -226 -699 -460 -1051 -38 -57 -39 -61
-14 -44 44 32 252 250 326 342 110 138 223 316 296 465 132 271 178 449 200
769 25 375 145 714 331 937 l39 46 122 6 c122 5 239 24 457 74 125 29 130 29
247 -21 74 -31 163 -43 201 -27 20 8 33 25 44 56 l17 45 -52 1 c-28 1 -40 3
-26 5 92 14 166 58 196 117 25 47 16 226 -12 264 -32 44 -77 69 -182 103 -53
18 -115 42 -138 54 -55 31 -283 217 -315 258 -25 31 -69 110 -69 123 0 3 14 5
30 5 48 0 90 23 158 86 70 66 86 101 68 154 -19 59 -62 75 -191 74 -60 -1
-153 -9 -205 -18 -63 -10 -112 -13 -145 -8 l-50 7 -6 95 c-7 99 -21 166 -45
213 -27 51 -57 28 -95 -75 -11 -29 -32 -79 -46 -110 l-26 -58 -52 0 c-29 0
-71 -7 -94 -15 -52 -18 -60 -15 -219 81 -130 79 -187 99 -198 71 -8 -22 12
-82 47 -140 16 -26 29 -51 29 -56 0 -5 -17 -15 -37 -21 -83 -27 -137 -89 -148
-171 -6 -45 -11 -51 -81 -106 -40 -33 -103 -73 -138 -91 -80 -40 -228 -80
-353 -96 l-95 -11 97 -60 c158 -98 263 -181 390 -309 168 -169 284 -346 368
-561 56 -141 53 -159 -7 -47 -98 183 -193 310 -335 444 -197 187 -383 301
-915 562 -491 242 -674 350 -871 517 -234 197 -336 418 -305 663 6 47 20 115
31 152 11 36 19 67 17 69 -2 2 -20 -22 -40 -53z"/>
<path d="M153 3805 c10 -170 74 -294 236 -456 196 -196 371 -304 986 -609 567
-281 712 -375 932 -603 145 -151 270 -344 339 -524 15 -40 29 -71 31 -69 7 7
-38 210 -68 305 -41 129 -144 334 -227 451 -129 182 -337 369 -574 516 -100
62 -338 184 -703 361 -470 229 -775 446 -914 653 l-44 65 6 -90z"/>
</g>
</svg>
